#!OML:ASF I:\Actors\actors\Patient Classification 1\Patient 1\Session 1\Subject1.ASF
:FULLY-SPECIFIED
:DEGREES
1195
root 0.00843889 17.4244 9.35038 10.7258 -2.98208 -10.3901
lowerback -1.69633 1.71373 6.86265
upperback -8.97196 2.7267 3.07926
thorax -8.36995 0.975341 -0.714394
lowerneck -7.61248 2.00683 2.62881
upperneck 18.2488 2.09258 1.54891
head 6.83376 1.32024 0.230754
rclavicle 1.15544e-015 1.50082e-014
rhumerus -55.4753 -32.1788 -53.8777
rradius 18.2084
rwrist 55.3237
rhand 6.26199 -28.9604
rfingers 7.12502
rthumb 31.5729 -56.251
lclavicle 1.15544e-015 1.50082e-014
lhumerus -52.8859 30.594 61.3639
lradius 14.4912
lwrist -43.054
lhand -18.5302 -10.5436
lfingers 7.12502
lthumb 7.75859 19.2941
rfemur -5.28278 21.6316 28.8635
rtibia 2.70005
rfoot -10.7913 -19.4784
rtoes 4.88581
lfemur 9.0674 -54.1895 -11.9058
ltibia -4.46794
lfoot -45.3519 59.135
ltoes 23.0675
1196
root -0.00685726 17.4251 9.35093 10.6693 -2.99249 -10.4229
lowerback -1.6089 1.69096 6.86091
upperback -8.97523 2.70612 3.09401
thorax -8.42705 0.964112 -0.699397
lowerneck -7.49055 2.01788 2.69428
upperneck 18.1643 2.12915 1.40973
head 6.78752 1.32939 0.176116
rclavicle 8.54774e-015 1.97791e-014
rhumerus -55.5056 -32.1328 -53.9046
rradius 18.2402
rwrist 55.4248
rhand 6.3206 -29.0232
rfingers 7.12502
rthumb 31.6288 -56.3029
lclavicle 8.54774e-015 1.97791e-014
lhumerus -52.9715 30.5889 61.1847
lradius 14.5081
lwrist -43.1232
lhand -18.4409 -10.4257
lfingers 7.12502
lthumb 7.84484 19.4087
rfemur -5.17771 21.6371 28.9896
rtibia 2.64578
rfoot -10.7654 -19.4667
rtoes 5.0286
lfemur 9.25166 -54.2385 -11.9465
ltibia -4.51842
lfoot -45.4195 59.2052
ltoes 23.0154
1197
root -0.0239082 17.4243 9.35 10.644 -2.98101 -10.3926
lowerback -1.54161 1.65413 6.78852
upperback -9.00113 2.66181 3.07797
thorax -8.49902 0.944345 -0.67618
lowerneck -7.42428 2.03804 2.80334
upperneck 18.1744 2.16949 1.26599
head 6.78242 1.34419 0.114528
rclavicle -1.30577e-014 -2.127e-014
rhumerus -55.5192 -32.0176 -54.0511
rradius 18.3008
rwrist 55.3503
rhand 6.49651 -29.0633
rfingers 7.12502
rthumb 31.7963 -56.3099
lclavicle -1.30577e-014 -2.127e-014
lhumerus -53.0371 30.4497 61.0591
lradius 14.5503
lwrist -43.0873
lhand -18.3683 -10.3117
lfingers 7.12502
lthumb 7.91491 19.5201
rfemur -5.13031 21.6074 29.0395
rtibia 2.63115
rfoot -10.7695 -19.4409
rtoes 5.04392
lfemur 9.30476 -54.2157 -11.9513
ltibia -4.54768
lfoot -45.1958 59.2897
ltoes 22.7015
1198
root -0.0420754 17.4219 9.34379 10.767 -2.89119 -10.3829
lowerback -1.60689 1.59707 6.71467
upperback -9.04829 2.58014 3.08737
thorax -8.52034 0.908775 -0.619424
lowerneck -7.46848 2.09995 2.81436
upperneck 18.2618 2.2583 1.22337
head 6.81966 1.38526 0.107415
rclavicle 3.33586e-014 -2.43511e-014
rhumerus -55.4658 -32.0428 -54.1077
rradius 18.3178
rwrist 55.356
rhand 6.64695 -29.041
rfingers 7.12502
rthumb 31.9396 -56.259
lclavicle 3.33586e-014 -2.43511e-014
lhumerus -53.1835 30.6542 60.64
lradius 14.4945
lwrist -43.4408
lhand -18.4014 -10.2816
lfingers 7.12502
lthumb 7.8829 19.5514
rfemur -5.3239 21.5133 29.0493
rtibia 2.65156
rfoot -10.6988 -19.4215
rtoes 4.70177
lfemur 8.76218 -53.9127 -11.4205
ltibia -4.49653
lfoot -44.4946 59.1269
ltoes 22.2675
1199
root -0.0587058 17.4199 9.33973 10.8653 -2.86598 -10.4337
lowerback -1.68672 1.5821 6.72071
upperback -9.07174 2.55521 3.10801
thorax -8.50202 0.897193 -0.597398
lowerneck -7.41542 2.16376 2.84876
upperneck 18.2546 2.36102 1.12706
head 6.8104 1.42898 0.0784666
rclavicle 1.6847e-014 2.67365e-014
rhumerus -55.4346 -32.1589 -54.0383
rradius 18.2883
rwrist 55.459
rhand 6.67036 -29.0399
rfingers 7.12502
rthumb 31.9619 -56.2534
lclavicle 1.6847e-014 2.67365e-014
lhumerus -53.3746 31.0677 60.0365
lradius 14.3719
lwrist -44.0844
lhand -18.5813 -10.2435
lfingers 7.12502
lthumb 7.7093 19.596
rfemur -5.47281 21.4847 29.1291
rtibia 2.64999
rfoot -10.6276 -19.3991
rtoes 4.56881
lfemur 8.42611 -53.7947 -11.0179
ltibia -4.43644
lfoot -44.4952 58.9697
ltoes 22.2739
